# xmcd
#
# Track frame offsets:
#	182
#	19812
#	35167
#	60637
#	80665
#	97690
#	115765
#	125100
#	138967
#	148172
#	163477
#	177382
#	194582
#	207100
#	220377
#	246202
#	257212
#	270600
#	285945
#	300952
#	312035
#
# Disc length: 4331 seconds
# Revision: 0
# Processed by: cddbd v1.5.2PL0 Copyright (c) Steve Scherf et al.
# Submitted via: dBpowerAMP V12.0
#
DISCID=3b10e915
DTITLE=Dorival Caymmi - Songbook -  Disco 2
DYEAR=1993
DGENRE=Brazil
TTITLE0=E Eu Sem Maria (Nana Caymmi)
TTITLE1=Só  Louco (Luiz Melodia)
TTITLE2=Marina (Hermeto Pascoal e Cássia Eller)
TTITLE3=Quem Vem Pra Beira Do Mar (Leila Pinheiro)
TTITLE4=Morena Do Mar (Beth Carvalho)
TTITLE5=Oração De Mãe Menininha (D. Ivone de Lara)
TTITLE6=São Salvador (Quarteto em Cy)
TTITLE7=Vestido De Bolero (João Nogueira)
TTITLE8=Você  Já  Foi A Bahia (Hélio Delmiro e Fátima Guedes)
TTITLE9=Rosa Morena (Emílio Santiago)
TTITLE10=Maracangalha (Sérgio Ricardo)
TTITLE11=Acontece Que Eu Sou Baiano (Dominguinhos)
TTITLE12=Balaio Grande (Jorge Mautner e Nelson Jacobina)
TTITLE13=Roda Pião (Sivuca e Glória Gadelha)
TTITLE14=A Jangada Voltou Só (Elomar)
TTITLE15=Fiz Uma Viagem (Xangai)
TTITLE16=Promessa De Pescador (Marlui Miranda e Ulisses Rocha)
TTITLE17=Balada Do Rei Das Sereias (Francis e Olívia Hime)
TTITLE18=Rua Deserta (Amélia Rabello e Cristóvão Bastos)
TTITLE19=Valerá  A Pena (Rosa Passos)
TTITLE20=Cantiga Pery Ribeiro e Arthur Verocai)
EXTD=
EXTT0=
EXTT1=
EXTT2=
EXTT3=
EXTT4=
EXTT5=
EXTT6=
EXTT7=
EXTT8=
EXTT9=
EXTT10=
EXTT11=
EXTT12=
EXTT13=
EXTT14=
EXTT15=
EXTT16=
EXTT17=
EXTT18=
EXTT19=
EXTT20=
PLAYORDER=
